<svg id="Слой_1" data-name="Слой 1" xmlns="http://www.w3.org/2000/svg" viewBox="0 0 80.73 18.59"><defs><style>.cls-1,.cls-3{fill:#001e45;}.cls-1,.cls-2{fill-rule:evenodd;}.cls-2,.cls-5{fill:#4a5b70;}.cls-4{fill:none;stroke:#001e45;stroke-miterlimit:10;stroke-width:0.71px;}.cls-6{fill:#fff;}</style></defs><path class="cls-1" d="M38.43,26.33h2.24V36.39H38.43V26.33Zm2.24-.69H38.43V23.41h2.24v2.23Zm4.39,16.13-1-.51a5.54,5.54,0,0,1-2.75-4.77V23.41h2.24v2.92H46l-2.44,2.44v7.72a3.3,3.3,0,0,0,1.47,2.73v2.55Zm1.46-15v9.77h.68V26.33h2.24V36.49a2.51,2.51,0,0,1-.34,1.29,2.62,2.62,0,0,1-1,.95l-.17.1V42H45.74V38.83l-.17-.1a2.7,2.7,0,0,1-1-.95,2.62,2.62,0,0,1-.34-1.29V29.06l2.24-2.24Zm-3.34-3.1h.24v-.2h-.24v.2Zm-.41,0H43v-.2h-.24v.2Zm-.42,0h.24v-.2h-.24v.2Zm-.42,0h.24v-.2h-.24v.2Zm-.42,0h.24v-.2h-.24v.2Zm-1.25,0h.23v-.2h-.23v.2Zm-.42,0h.24v-.2h-.24v.2Zm-.42,0h.24v-.2h-.24v.2Zm-.42,0h.24v-.2H39v.2Zm4.18.36h.24v-.2h-.24v.2Zm-.41,0H43v-.2h-.24v.2Zm-.42,0h.24v-.2h-.24v.2Zm-.84,0h.24v-.2h-.24v.2Zm-1.25,0h.23v-.2h-.23v.2Zm-.42,0h.24v-.2h-.24v.2Zm-.42,0h.24v-.2h-.24v.2Zm-.42,0h.24v-.2H39v.2Zm-.42,0h.24v-.2h-.24v.2Zm4.6.37h.24v-.2h-.24v.2Zm-.41,0H43v-.2h-.24v.2Zm-.42,0h.24v-.2h-.24v.2Zm-.42,0h.24v-.2h-.24v.2Zm-.42,0h.24v-.2h-.24v.2Zm-1.25,0h.23v-.2h-.23v.2Zm-.42,0h.24v-.2h-.24v.2Zm-.42,0h.24v-.2h-.24v.2Zm-.42,0h.24v-.2H39v.2Zm-.42,0h.24v-.2h-.24v.2Zm4.6.36h.24v-.2h-.24v.2Zm-.41,0H43v-.2h-.24v.2Zm-.42,0h.24v-.2h-.24v.2Zm-.84,0h.24v-.2h-.24v.2Zm-1.25,0h.23v-.2h-.23v.2Zm-.42,0h.24v-.2h-.24v.2Zm-.84,0h.24v-.2H39v.2Zm-.42,0h.24v-.2h-.24v.2Zm4.6.37h.24V25h-.24v.21Zm-.41,0H43V25h-.24v.21Zm-.42,0h.24V25h-.24v.21Zm-.42,0h.24V25h-.24v.21Zm-.42,0h.24V25h-.24v.21Zm-1.25,0h.23V25h-.23v.21Zm-.42,0h.24V25h-.24v.21Zm-.42,0h.24V25h-.24v.21Zm-.42,0h.24V25H39v.21Zm-.42,0h.24V25h-.24v.21Zm4.6.36h.24v-.2h-.24v.2Zm-.41,0H43v-.2h-.24v.2Zm-.42,0h.24v-.2h-.24v.2Zm-.42,0h.24v-.2h-.24v.2Zm-.42,0h.24v-.2h-.24v.2Zm-1.25,0h.23v-.2h-.23v.2Zm-.42,0h.24v-.2h-.24v.2Zm-.42,0h.24v-.2h-.24v.2Zm-.42,0h.24v-.2H39v.2Zm4.18.36h.24v-.2h-.24v.2Zm-.41,0H43v-.2h-.24v.2Zm-.42,0h.24v-.2h-.24v.2Zm-.42,0h.24v-.2h-.24v.2Zm-.42,0h.24v-.2h-.24v.2Zm1.67.37h.24v-.2h-.24v.2Zm-.83,0h.24v-.2h-.24v.2Zm-.42,0h.24v-.2h-.24v.2Zm-.42,0h.24v-.2h-.24v.2Zm7.53.36h.24v-.2H49v.2Zm-.42,0h.24v-.2h-.24v.2Zm-.83,0H48v-.2h-.24v.2Zm-2.51,0h.24v-.2h-.24v.2Zm-.42,0h.24v-.2h-.24v.2Zm-.42,0h.24v-.2h-.24v.2Zm-.42,0h.24v-.2H44v.2Zm-.84,0h.24v-.2h-.24v.2Zm-.41,0H43v-.2h-.24v.2Zm-.42,0h.24v-.2h-.24v.2Zm-2.09,0h.23v-.2h-.23v.2Zm-.42,0h.24v-.2h-.24v.2Zm-.42,0h.24v-.2h-.24v.2Zm-.42,0h.24v-.2H39v.2Zm-.42,0h.24v-.2h-.24v.2ZM49,27h.24v-.21H49V27Zm-.42,0h.24v-.21h-.24V27Zm-.41,0h.24v-.21h-.24V27Zm-.42,0H48v-.21h-.24V27Zm-.42,0h.24v-.21h-.24V27Zm-2.51,0h.24v-.21h-.24V27Zm-.42,0h.24v-.21h-.24V27ZM44,27h.24v-.21H44V27Zm-.42,0h.24v-.21H43.6V27Zm-.83,0H43v-.21h-.24V27Zm-.84,0h.24v-.21h-.24V27Zm-.42,0h.24v-.21h-.24V27Zm-1.67,0h.24v-.21h-.24V27ZM39,27h.24v-.21H39V27Zm-.42,0h.24v-.21h-.24V27ZM49,27.36h.24v-.2H49v.2Zm-.42,0h.24v-.2h-.24v.2Zm-.83,0H48v-.2h-.24v.2Zm-.42,0h.24v-.2h-.24v.2Zm-2.93,0h.24v-.2h-.24v.2Zm-.42,0h.24v-.2H44v.2Zm-.42,0h.24v-.2H43.6v.2Zm-.42,0h.24v-.2h-.24v.2Zm-.41,0H43v-.2h-.24v.2Zm-.42,0h.24v-.2h-.24v.2Zm-.42,0h.24v-.2h-.24v.2Zm-1.67,0h.23v-.2h-.23v.2Zm-.42,0h.24v-.2h-.24v.2Zm-.42,0h.24v-.2h-.24v.2Zm-.42,0h.24v-.2H39v.2Zm9.62.37h.24v-.21h-.24v.21Zm-.41,0h.24v-.21h-.24v.21Zm-.42,0H48v-.21h-.24v.21Zm-1.68,0h.24v-.21h-.24v.21Zm-2.09,0h.24v-.21H44v.21Zm-.42,0h.24v-.21H43.6v.21Zm-.42,0h.24v-.21h-.24v.21Zm-.41,0H43v-.21h-.24v.21Zm-.84,0h.24v-.21h-.24v.21Zm-.42,0h.24v-.21h-.24v.21Zm-1.25,0h.23v-.21h-.23v.21Zm-1.26,0h.24v-.21H39v.21Zm-.42,0h.24v-.21h-.24v.21ZM49,28.09h.24v-.2H49v.2Zm-.42,0h.24v-.2h-.24v.2Zm-.41,0h.24v-.2h-.24v.2Zm-.84,0h.24v-.2h-.24v.2Zm-1.26,0h.24v-.2h-.24v.2Zm-2.51,0h.24v-.2H43.6v.2Zm-.42,0h.24v-.2h-.24v.2Zm-.83,0h.24v-.2h-.24v.2Zm-.42,0h.24v-.2h-.24v.2Zm-.42,0h.24v-.2h-.24v.2Zm-1.67,0h.24v-.2h-.24v.2Zm-.42,0h.24v-.2h-.24v.2Zm-.42,0h.24v-.2H39v.2Zm-.42,0h.24v-.2h-.24v.2ZM49,28.45h.24v-.2H49v.2Zm-.42,0h.24v-.2h-.24v.2Zm-.41,0h.24v-.2h-.24v.2Zm-.84,0h.24v-.2h-.24v.2Zm-1.26,0h.24v-.2h-.24v.2Zm-.42,0h.24v-.2h-.24v.2Zm-2.09,0h.24v-.2H43.6v.2Zm-.83,0H43v-.2h-.24v.2Zm-.42,0h.24v-.2h-.24v.2Zm-.42,0h.24v-.2h-.24v.2Zm-1.67,0h.23v-.2h-.23v.2Zm-.42,0h.24v-.2h-.24v.2Zm-.42,0h.24v-.2h-.24v.2Zm-.42,0h.24v-.2H39v.2Zm10,.37h.24v-.2H49v.2Zm-.83,0h.24v-.2h-.24v.2Zm-.42,0H48v-.2h-.24v.2Zm-.42,0h.24v-.2h-.24v.2Zm-1.26,0h.24v-.2h-.24v.2Zm-.83,0h.24v-.2h-.24v.2Zm-.42,0h.24v-.2h-.24v.2Zm-1.68,0h.24v-.2h-.24v.2Zm-.83,0h.24v-.2h-.24v.2Zm-.42,0h.24v-.2h-.24v.2Zm-.42,0h.24v-.2h-.24v.2Zm-1.25,0h.23v-.2h-.23v.2Zm-.42,0h.24v-.2h-.24v.2Zm-.42,0h.24v-.2h-.24v.2Zm-.42,0h.24v-.2H39v.2Zm-.42,0h.24v-.2h-.24v.2ZM49,29.18h.24V29H49v.2Zm-.42,0h.24V29h-.24v.2Zm-.41,0h.24V29h-.24v.2Zm-.42,0H48V29h-.24v.2Zm-.42,0h.24V29h-.24v.2Zm-1.26,0h.24V29h-.24v.2Zm-.83,0h.24V29h-.24v.2Zm-.42,0h.24V29h-.24v.2Zm-.42,0h.24V29h-.24v.2Zm-1.26,0h.24V29h-.24v.2Zm-.41,0H43V29h-.24v.2Zm-.42,0h.24V29h-.24v.2Zm-.42,0h.24V29h-.24v.2Zm-.42,0h.24V29h-.24v.2Zm-1.67,0h.24V29h-.24v.2Zm-.84,0h.24V29H39v.2Zm-.42,0h.24V29h-.24v.2Zm10,.37h.24v-.21h-.24v.21Zm-.83,0H48v-.21h-.24v.21Zm-1.68,0h.24v-.21h-.24v.21Zm-.42,0h.24v-.21h-.24v.21Zm-.41,0h.24v-.21h-.24v.21Zm-.42,0h.24v-.21h-.24v.21Zm-.42,0h.24v-.21h-.24v.21Zm-1.26,0h.24v-.21h-.24v.21Zm-.83,0h.24v-.21h-.24v.21Zm-.84,0h.24v-.21h-.24v.21Zm-1.25,0h.23v-.21h-.23v.21Zm-.42,0h.24v-.21h-.24v.21Zm-.84,0h.24v-.21H39v.21Zm9.62.36h.24v-.2h-.24v.2Zm-.41,0h.24v-.2h-.24v.2Zm-.42,0H48v-.2h-.24v.2Zm-.42,0h.24v-.2h-.24v.2Zm-1.26,0h.24v-.2h-.24v.2Zm-.83,0h.24v-.2h-.24v.2Zm-.84,0h.24v-.2h-.24v.2Zm-1.26,0h.24v-.2h-.24v.2Zm-.41,0H43v-.2h-.24v.2Zm-.42,0h.24v-.2h-.24v.2Zm-.84,0h.24v-.2h-.24v.2Zm-1.25,0h.23v-.2h-.23v.2Zm-.42,0h.24v-.2h-.24v.2Zm-.84,0h.24v-.2H39v.2Zm10,.36h.24v-.2H49v.2Zm-.42,0h.24v-.2h-.24v.2Zm-.41,0h.24v-.2h-.24v.2Zm-.84,0h.24v-.2h-.24v.2Zm-1.68,0h.24v-.2h-.24v.2Zm-2.51,0h.24v-.2h-.24v.2Zm-.83,0h.24v-.2h-.24v.2Zm-.42,0h.24v-.2h-.24v.2Zm-.42,0h.24v-.2h-.24v.2Zm-1.67,0h.24v-.2h-.24v.2Zm-.84,0h.24v-.2H39v.2Zm-.42,0h.24v-.2h-.24v.2ZM49,30.64h.24v-.2H49v.2Zm-.42,0h.24v-.2h-.24v.2Zm-.41,0h.24v-.2h-.24v.2Zm-.42,0H48v-.2h-.24v.2Zm-.42,0h.24v-.2h-.24v.2Zm-1.68,0h.24v-.2h-.24v.2Zm-.41,0h.24v-.2h-.24v.2Zm-.42,0h.24v-.2h-.24v.2Zm-.42,0h.24v-.2h-.24v.2Zm-1.26,0h.24v-.2h-.24v.2Zm-.41,0H43v-.2h-.24v.2Zm-.84,0h.24v-.2h-.24v.2Zm-.42,0h.24v-.2h-.24v.2Zm-1.25,0h.23v-.2h-.23v.2Zm-.42,0h.24v-.2h-.24v.2Zm-.42,0h.24v-.2h-.24v.2Zm-.84,0h.24v-.2h-.24v.2Zm10,.36h.24v-.2h-.24V31Zm-.41,0h.24v-.2h-.24V31Zm-.42,0H48v-.2h-.24V31Zm-.42,0h.24v-.2h-.24V31Zm-1.26,0h.24v-.2h-.24V31Zm-.42,0h.24v-.2h-.24V31Zm-.41,0h.24v-.2h-.24V31Zm-2.51,0H43v-.2h-.24V31Zm-.84,0h.24v-.2h-.24V31Zm-2.09,0h.24v-.2h-.24V31ZM39,31h.24v-.2H39V31Zm10,.37h.24v-.2H49v.2Zm-.42,0h.24v-.2h-.24v.2Zm-.41,0h.24v-.2h-.24v.2Zm-.42,0H48v-.2h-.24v.2Zm-1.68,0h.24v-.2h-.24v.2Zm-3.76,0h.24v-.2h-.24v.2Zm-.42,0h.24v-.2h-.24v.2Zm-2.09,0h.24v-.2h-.24v.2Zm-.42,0h.24v-.2h-.24v.2Zm-.42,0h.24v-.2H39v.2Zm9.21.36h.24v-.2h-.24v.2Zm-.84,0h.24v-.2h-.24v.2Zm-1.26,0h.24v-.2h-.24v.2Zm-.42,0h.24v-.2h-.24v.2Zm-.41,0h.24v-.2h-.24v.2Zm-.42,0h.24v-.2h-.24v.2Zm-1.68,0h.24v-.2h-.24v.2Zm-.41,0H43v-.2h-.24v.2Zm-.84,0h.24v-.2h-.24v.2Zm-.42,0h.24v-.2h-.24v.2Zm-1.25,0h.23v-.2h-.23v.2Zm-1.68,0h.24v-.2h-.24v.2ZM49,32.1h.24v-.21H49v.21Zm-1.25,0H48v-.21h-.24v.21Zm-2.1,0h.24v-.21h-.24v.21Zm-.41,0h.24v-.21h-.24v.21Zm-.42,0h.24v-.21h-.24v.21Zm-1.68,0h.24v-.21h-.24v.21Zm-.41,0H43v-.21h-.24v.21Zm-1.26,0h.24v-.21h-.24v.21Zm-1.25,0h.23v-.21h-.23v.21Zm-.42,0h.24v-.21h-.24v.21Zm-.42,0h.24v-.21h-.24v.21Zm-.42,0h.24v-.21H39v.21Zm-.42,0h.24v-.21h-.24v.21ZM49,32.46h.24v-.2H49v.2Zm-1.67,0h.24v-.2h-.24v.2Zm-1.26,0h.24v-.2h-.24v.2Zm-.42,0h.24v-.2h-.24v.2Zm-.83,0h.24v-.2h-.24v.2Zm-.42,0h.24v-.2h-.24v.2Zm-1.26,0h.24v-.2h-.24v.2Zm-.83,0h.24v-.2h-.24v.2Zm-.42,0h.24v-.2h-.24v.2Zm-.42,0h.24v-.2h-.24v.2Zm-1.25,0h.23v-.2h-.23v.2Zm-1.26,0h.24v-.2H39v.2Zm-.42,0h.24v-.2h-.24v.2ZM49,32.82h.24v-.2H49v.2Zm-.42,0h.24v-.2h-.24v.2Zm-.41,0h.24v-.2h-.24v.2Zm-.42,0H48v-.2h-.24v.2Zm-.42,0h.24v-.2h-.24v.2Zm-2.09,0h.24v-.2h-.24v.2Zm-.84,0h.24v-.2h-.24v.2Zm-2.51,0h.24v-.2h-.24v.2Zm-2.09,0h.24v-.2h-.24v.2Zm-.42,0h.24v-.2h-.24v.2Zm-.84,0h.24v-.2h-.24v.2Zm9.63.37h.24V33h-.24v.2Zm-.84,0h.24V33h-.24v.2Zm-1.68,0h.24V33h-.24v.2Zm-.41,0h.24V33h-.24v.2Zm-.42,0h.24V33h-.24v.2Zm-1.68,0h.24V33h-.24v.2Zm-.83,0h.24V33h-.24v.2Zm-2.09,0h.23V33h-.23v.2Zm-.42,0h.24V33h-.24v.2Zm-1.26,0h.24V33h-.24v.2ZM49,33.55h.24v-.2H49v.2Zm-.42,0h.24v-.2h-.24v.2Zm-.41,0h.24v-.2h-.24v.2Zm-.42,0H48v-.2h-.24v.2Zm-1.68,0h.24v-.2h-.24v.2Zm-.83,0h.24v-.2h-.24v.2Zm-.84,0h.24v-.2h-.24v.2Zm-2.51,0h.24v-.2h-.24v.2Zm-2.93,0h.24v-.2H39v.2Zm-.42,0h.24v-.2h-.24v.2ZM49,33.92h.24v-.2H49v.2Zm-1.67,0h.24v-.2h-.24v.2Zm-1.26,0h.24v-.2h-.24v.2Zm-.42,0h.24v-.2h-.24v.2Zm-.41,0h.24v-.2h-.24v.2Zm-.84,0h.24v-.2h-.24v.2Zm-1.67,0H43v-.2h-.24v.2Zm-2.93,0h.24v-.2h-.24v.2Zm-.42,0h.24v-.2h-.24v.2Zm9.2.36h.24v-.2h-.24v.2Zm-.41,0h.24v-.2h-.24v.2Zm-2.1,0h.24v-.2h-.24v.2Zm-1.67,0h.24v-.2h-.24v.2Zm-2.09,0h.24v-.2h-.24v.2Zm-.84,0h.24v-.2h-.24v.2Zm-1.67,0h.24v-.2h-.24v.2Zm-.84,0h.24v-.2H39v.2Zm9.62.37h.24v-.21h-.24v.21Zm-.83,0H48v-.21h-.24v.21Zm-4.61,0h.24v-.21h-.24v.21Zm-.41,0H43v-.21h-.24v.21Zm-.42,0h.24v-.21h-.24v.21Zm-2.09,0h.23v-.21h-.23v.21Zm-1.26,0h.24v-.21H39v.21Zm9.21.36h.24v-.2h-.24V35Zm-.42,0H48v-.2h-.24V35Zm-2.51,0h.24v-.2h-.24V35Zm-.84,0h.24v-.2h-.24V35Zm-1.67,0H43v-.2h-.24V35Zm-1.26,0h.24v-.2h-.24V35Zm-1.25,0h.23v-.2h-.23V35Zm-1.68,0h.24v-.2h-.24V35ZM49,35.37h.24v-.2H49v.2Zm-1.67,0h.24v-.2h-.24v.2Zm-2.09,0h.24v-.2h-.24v.2Zm-2.93,0h.24v-.2h-.24v.2Zm5.86.37h.24v-.2h-.24v.2Zm-2.1,0h.24v-.2h-.24v.2Zm-5.85,0h.23v-.2h-.23v.2Zm-.84,0h.24v-.2h-.24v.2Zm5,.36h.24v-.2h-.24v.2ZM39,36.1h.24v-.2H39v.2Zm-1.67-9.31h.24V27h-.24v-.21Zm0,.37h.24v.2h-.24v-.2Zm0,.73h.24v.2h-.24v-.2Zm0,1.45h.24v.21h-.24v-.21Zm0,.37h.24v.2h-.24v-.2Zm0,.73h.24v.2h-.24v-.2Zm0,1.82h.24v.2h-.24v-.2Zm0,.73h.24v.2h-.24V33Zm0,.73h.24v.2h-.24v-.2Zm0,.36h.24v.2h-.24v-.2Zm0,.73h.24V35h-.24v-.2Zm0,.73h.24v.2h-.24v-.2Zm-.42-9.11h.24v.2h-.24v-.2Zm0,.36h.24V27h-.24v-.21Zm0,.73h.24v.21h-.24v-.21Zm0,.73h.24v.2h-.24v-.2Zm0,.37h.24v.2h-.24v-.2Zm0,.36h.24v.2h-.24V29Zm0,.36h.24v.21h-.24v-.21Zm0,.37h.24v.2h-.24v-.2Zm0,.36h.24v.2h-.24v-.2Zm0,.37h.24v.2h-.24v-.2Zm0,.36h.24V31h-.24v-.2Zm0,1.09h.24v.21h-.24v-.21Zm0,1.46h.24v.2h-.24v-.2Zm-.42-6.92h.24v.2h-.24v-.2Zm0,.36h.24V27h-.24v-.21Zm0,.37h.24v.2h-.24v-.2Zm0,1.09h.24v.2h-.24v-.2Zm0,.37h.24v.2h-.24v-.2Zm0,.36h.24v.2h-.24V29Zm0,.36h.24v.21h-.24v-.21Zm0,.37h.24v.2h-.24v-.2Zm0,.73h.24v.2h-.24v-.2Zm0,.36h.24V31h-.24v-.2Zm0,1.09h.24v.21h-.24v-.21Zm0,.37h.24v.2h-.24v-.2Zm0,.36h.24v.2h-.24v-.2Zm0,.37h.24v.2h-.24V33Zm0,.73h.24v.2h-.24v-.2Zm0,.72h.24v.21h-.24v-.21Zm0,.73h.24v.2h-.24v-.2Zm-.42-8.74h.24v.2h-.24v-.2Zm0,.73h.24v.2h-.24v-.2Zm0,.36h.24v.21h-.24v-.21Zm0,.73h.24v.2h-.24v-.2Zm0,.37h.24v.2h-.24v-.2Zm0,.72h.24v.21h-.24v-.21Zm0,.37h.24v.2h-.24v-.2Zm0,.36h.24v.2h-.24v-.2Zm0,.73h.24V31h-.24v-.2Zm0,1.46h.24v.2h-.24v-.2Zm0,1.46h.24v.2h-.24v-.2Zm0,1.82h.24v.2h-.24v-.2Zm-.42-8.75h.24V27h-.24v-.21Zm0,.73h.24v.21h-.24v-.21Zm0,.37h.24v.2h-.24v-.2Zm0,.36h.24v.2h-.24v-.2Zm0,.73h.24v.2h-.24V29Zm0,.73h.24v.2h-.24v-.2Zm0,.73h.24v.2h-.24v-.2Zm0,.36h.24V31h-.24v-.2Zm0,1.46h.24v.2h-.24v-.2Zm0,.36h.24v.2h-.24v-.2Zm0,.37h.24v.2h-.24V33Zm0,.73h.24v.2h-.24v-.2Zm0,.72h.24v.21h-.24v-.21Zm-.42-8h.24v.2h-.24v-.2Zm0,.36h.24V27h-.24v-.21Zm0,.37h.24v.2h-.24v-.2Zm0,.36h.24v.21h-.24v-.21Zm0,.37h.24v.2h-.24v-.2Zm0,.36h.24v.2h-.24v-.2Zm0,6.19h.24v.21h-.24v-.21Zm0,1.46h.24v.2h-.24v-.2Zm-.41-9.47h.24v.2h-.24v-.2Zm0,.36h.24V27h-.24v-.21Zm0,.37h.24v.2h-.24v-.2Zm0,.73h.24v.2h-.24v-.2Zm0,7.28h.24v.2h-.24v-.2Zm-.42-8.38h.24V27H34.4v-.21Zm0,.37h.24v.2H34.4v-.2Zm0,.36h.24v.21H34.4v-.21Zm0,.37h.24v.2H34.4v-.2Zm0,.36h.24v.2H34.4v-.2Zm0,.37h.24v.2H34.4v-.2Zm0,.36h.24v.2H34.4V29Zm0,.36h.24v.21H34.4v-.21Zm0,.37h.24v.2H34.4v-.2Zm0,.36h.24v.2H34.4v-.2Zm0,.73h.24V31H34.4v-.2Zm0,.37h.24v.2H34.4v-.2Zm0,1.09h.24v.2H34.4v-.2Zm0,.36h.24v.2H34.4v-.2Zm0,.37h.24v.2H34.4V33Zm0,.36h.24v.2H34.4v-.2Zm0,.73h.24v.2H34.4v-.2Zm0,1.09h.24v.2H34.4v-.2Zm0,.37h.24v.2H34.4v-.2ZM34,26.79h.24V27H34v-.21Zm0,.73h.24v.21H34v-.21Zm0,.37h.24v.2H34v-.2Zm0,.36h.24v.2H34v-.2ZM34,29h.24v.2H34V29Zm0,.36h.24v.21H34v-.21Zm0,.37h.24v.2H34v-.2Zm0,.73h.24v.2H34v-.2Zm0,.36h.24V31H34v-.2Zm0,.37h.24v.2H34v-.2Zm0,.36h.24v.2H34v-.2Zm0,.36h.24v.21H34v-.21Zm0,1.46h.24v.2H34v-.2Zm0,1.09h.24v.21H34v-.21Zm0,.73h.24v.2H34v-.2Zm-.42-8h.24v.2h-.24v-.2Zm0,.36h.24v.21h-.24v-.21Zm0,1.1h.24v.2h-.24v-.2Zm0,.36h.24v.2h-.24V29Zm0,.36h.24v.21h-.24v-.21Zm0,.37h.24v.2h-.24v-.2Zm0,2.18h.24v.21h-.24v-.21Zm0,.73h.24v.2h-.24v-.2Zm0,1.82h.24v.21h-.24v-.21Zm0,.37h.24V35h-.24v-.2Zm-.42-7.29h.24v.21h-.24v-.21Zm0,.73h.24v.2h-.24v-.2Zm0,.37h.24v.2h-.24v-.2Zm0,.36h.24v.2h-.24V29Zm0,.73h.24v.2h-.24v-.2Zm0,.73h.24v.2h-.24v-.2Zm0,.73h.24v.2h-.24v-.2Zm0,.72h.24v.21h-.24v-.21Zm0,.37h.24v.2h-.24v-.2Zm0,1.09h.24v.2h-.24v-.2Zm0,.73h.24v.2h-.24v-.2Zm0,1.09h.24v.2h-.24v-.2Zm-.42-6.92H33v.2h-.24v-.2Zm0,.73H33v.2h-.24V29Zm0,.36H33v.21h-.24v-.21Zm0,.37H33v.2h-.24v-.2Zm0,.36H33v.2h-.24v-.2Zm0,.37H33v.2h-.24v-.2Zm0,.73H33v.2h-.24v-.2Zm0,.36H33v.2h-.24v-.2Zm0,.73H33v.2h-.24v-.2Zm0,1.46H33v.2h-.24v-.2Zm5,2.67V31.71H35.5v2.2h-.69V28.82h.69V31h2.24V26.33H35.16a2.58,2.58,0,0,0-2.58,2.58v4.9a2.56,2.56,0,0,0,2.58,2.58Z" transform="translate(-18.44 -23.41)"/><path class="cls-2" d="M27.53,29.88a4.67,4.67,0,0,0-1.14.11,1.24,1.24,0,0,0-1,.76.75.75,0,0,0,.07.59,1.27,1.27,0,0,0,.62.48,1.63,1.63,0,0,0-.61.42,1,1,0,0,0-.13.82,1.27,1.27,0,0,0,1,.86,5.08,5.08,0,0,0,1.16.13,5,5,0,0,0,1.17-.12,1.4,1.4,0,0,0,1-.67,1,1,0,0,0-.06-1,1.71,1.71,0,0,0-.61-.42,1.5,1.5,0,0,0,.39-.22.78.78,0,0,0,.3-.85,1.24,1.24,0,0,0-1-.76,4.67,4.67,0,0,0-1.14-.11Zm-.48,1.62a.44.44,0,0,1,0-.84,1.5,1.5,0,0,1,1,0,.44.44,0,0,1,0,.84,1.38,1.38,0,0,1-1,0Zm0,1.73a.49.49,0,0,1,0-.92,1.34,1.34,0,0,1,1.11,0,.48.48,0,0,1-.06.87,1.46,1.46,0,0,1-1,0Zm-2.47-1.64c.05.52,0,1.93,0,2.46H23.31c0-.49.05-1.87,0-2.35a.68.68,0,0,0-.21-.46.51.51,0,0,0-.35-.13.48.48,0,0,0-.36.14.64.64,0,0,0-.21.45c-.05.48,0,1.86,0,2.35H20.83c0-.49,0-1.87,0-2.35a.73.73,0,0,0-.21-.45.48.48,0,0,0-.36-.14.52.52,0,0,0-.36.13.78.78,0,0,0-.21.46c0,.48,0,1.86,0,2.35H18.46c0-.53,0-1.94,0-2.46a1.82,1.82,0,0,1,1.8-1.71,1.74,1.74,0,0,1,1.24.51,1.74,1.74,0,0,1,1.25-.51,1.83,1.83,0,0,1,1.79,1.71Z" transform="translate(-18.44 -23.41)"/><path class="cls-3" d="M58.81,26.06H58v2.38h-.35V26.06h-.86v-.28h2.06Z" transform="translate(-18.44 -23.41)"/><path class="cls-3" d="M60.71,27.21H59.56v.94H60.9v.29H59.21V25.78h1.67v.28H59.56v.86h1.15Z" transform="translate(-18.44 -23.41)"/><path class="cls-3" d="M62.21,26.8l.64-1h.41l-.84,1.32.86,1.34h-.42l-.65-1-.66,1h-.42L62,27.1l-.85-1.32h.42Z" transform="translate(-18.44 -23.41)"/><path class="cls-3" d="M65.73,28.44h-.35V27.21H64v1.23h-.35V25.78H64v1.14h1.34V25.78h.35Z" transform="translate(-18.44 -23.41)"/><path class="cls-3" d="M68.41,27.19a1.67,1.67,0,0,1-.14.69,1,1,0,0,1-.37.44,1.06,1.06,0,0,1-1.12,0,1,1,0,0,1-.38-.44,1.69,1.69,0,0,1-.14-.66V27a1.57,1.57,0,0,1,.14-.67,1,1,0,0,1,.93-.61,1.05,1.05,0,0,1,.57.15,1,1,0,0,1,.37.45,1.65,1.65,0,0,1,.14.68ZM68.06,27a1.27,1.27,0,0,0-.19-.73.67.67,0,0,0-.54-.25.64.64,0,0,0-.52.25,1.22,1.22,0,0,0-.2.71v.19a1.16,1.16,0,0,0,.2.72.6.6,0,0,0,.53.27.63.63,0,0,0,.52-.25,1.2,1.2,0,0,0,.2-.71Z" transform="translate(-18.44 -23.41)"/><path class="cls-3" d="M70.89,25.78v2.66h-.35V26.06h-1l0,1.06a4,4,0,0,1-.11.8.82.82,0,0,1-.24.39.7.7,0,0,1-.42.13h-.12v-.29h.08A.42.42,0,0,0,69,28a.82.82,0,0,0,.14-.31,4.39,4.39,0,0,0,.06-.66l.06-1.29Z" transform="translate(-18.44 -23.41)"/><path class="cls-3" d="M73.57,27.19a1.67,1.67,0,0,1-.13.69,1,1,0,0,1-.37.44,1.06,1.06,0,0,1-.57.16,1,1,0,0,1-.55-.16,1,1,0,0,1-.38-.44,1.53,1.53,0,0,1-.14-.66V27a1.57,1.57,0,0,1,.14-.67.93.93,0,0,1,.37-.45,1,1,0,0,1,.56-.16,1,1,0,0,1,.94.6,1.65,1.65,0,0,1,.13.68ZM73.22,27a1.2,1.2,0,0,0-.19-.73A.63.63,0,0,0,72.5,26a.64.64,0,0,0-.52.25,1.15,1.15,0,0,0-.2.71v.19a1.23,1.23,0,0,0,.19.72.62.62,0,0,0,.53.27.63.63,0,0,0,.53-.25,1.13,1.13,0,0,0,.19-.71Z" transform="translate(-18.44 -23.41)"/><path class="cls-3" d="M75.75,26.06H74.47v2.38h-.36V25.78h1.64Z" transform="translate(-18.44 -23.41)"/><path class="cls-3" d="M77.86,25.78h.35v2.66h-.35V26.39l-1.31,2.05H76.2V25.78h.35v2Z" transform="translate(-18.44 -23.41)"/><path class="cls-3" d="M80.53,25.78h.35v2.66h-.35V26.39l-1.31,2.05h-.35V25.78h.35v2Z" transform="translate(-18.44 -23.41)"/><path class="cls-3" d="M58.22,32.57H57.07v.94h1.34v.29H56.72V31.14h1.67v.29H57.07v.85h1.15Z" transform="translate(-18.44 -23.41)"/><path class="cls-3" d="M60.81,33a1,1,0,0,1-.32.65,1,1,0,0,1-.69.23A.93.93,0,0,1,59,33.5a1.38,1.38,0,0,1-.28-.91v-.25a1.45,1.45,0,0,1,.13-.65,1,1,0,0,1,.37-.44,1.08,1.08,0,0,1,.57-.15,1,1,0,0,1,.68.24,1,1,0,0,1,.3.65h-.36a.73.73,0,0,0-.2-.46.61.61,0,0,0-.42-.14.62.62,0,0,0-.53.25,1.11,1.11,0,0,0-.19.71v.25a1.18,1.18,0,0,0,.18.69.57.57,0,0,0,.51.26.69.69,0,0,0,.45-.13.73.73,0,0,0,.2-.46Z" transform="translate(-18.44 -23.41)"/><path class="cls-3" d="M63.07,31.43h-.85V33.8h-.35V31.43H61v-.29h2.06Z" transform="translate(-18.44 -23.41)"/><path class="cls-3" d="M65,32.57H63.82v.94h1.34v.29H63.47V31.14h1.67v.29H63.82v.85H65Z" transform="translate(-18.44 -23.41)"/><path class="cls-3" d="M67.55,33a.94.94,0,0,1-.31.65,1,1,0,0,1-.69.23.93.93,0,0,1-.76-.34,1.38,1.38,0,0,1-.29-.91v-.25a1.45,1.45,0,0,1,.14-.65,1,1,0,0,1,.37-.44,1.08,1.08,0,0,1,.57-.15.91.91,0,0,1,1,.89H67.2a.73.73,0,0,0-.2-.46.61.61,0,0,0-.42-.14.62.62,0,0,0-.53.25,1.11,1.11,0,0,0-.19.71v.25a1.18,1.18,0,0,0,.18.69.57.57,0,0,0,.51.26.64.64,0,0,0,.44-.13A.69.69,0,0,0,67.2,33Z" transform="translate(-18.44 -23.41)"/><path class="cls-3" d="M69.82,31.43H69V33.8h-.34V31.43h-.86v-.29h2.06Z" transform="translate(-18.44 -23.41)"/><path class="cls-3" d="M70.22,33.8V31.14h.87a1,1,0,0,1,.65.18.66.66,0,0,1,.22.53.57.57,0,0,1-.11.33.72.72,0,0,1-.29.22.6.6,0,0,1,.34.23A.62.62,0,0,1,72,33a.75.75,0,0,1-.23.57,1,1,0,0,1-.66.2Zm.35-1.53h.53a.56.56,0,0,0,.37-.11.39.39,0,0,0,.13-.31.38.38,0,0,0-.12-.32.63.63,0,0,0-.39-.1h-.52Zm0,.29v.95h.58a.56.56,0,0,0,.38-.12.44.44,0,0,0,.15-.35c0-.32-.18-.48-.53-.48Z" transform="translate(-18.44 -23.41)"/><path class="cls-3" d="M74.05,32.57H72.9v.94h1.34v.29H72.55V31.14h1.67v.29H72.9v.85h1.15Z" transform="translate(-18.44 -23.41)"/><path class="cls-3" d="M76.72,33.8h-.35V32.57H75V33.8h-.35V31.14H75v1.14h1.34V31.14h.35Z" transform="translate(-18.44 -23.41)"/><path class="cls-3" d="M79.39,33.8H79V32.57H77.7V33.8h-.35V31.14h.35v1.14H79V31.14h.35Z" transform="translate(-18.44 -23.41)"/><path class="cls-3" d="M82.07,32.56a1.62,1.62,0,0,1-.14.68,1,1,0,0,1-.37.44,1.06,1.06,0,0,1-1.12,0,1,1,0,0,1-.38-.44,1.69,1.69,0,0,1-.14-.66v-.19a1.62,1.62,0,0,1,.14-.68,1,1,0,0,1,1.5-.45.93.93,0,0,1,.37.45,1.59,1.59,0,0,1,.14.68Zm-.35-.18a1.23,1.23,0,0,0-.19-.72A.65.65,0,0,0,81,31.4a.62.62,0,0,0-.52.26,1.19,1.19,0,0,0-.2.7v.2a1.2,1.2,0,0,0,.2.72.61.61,0,0,0,.53.26.6.6,0,0,0,.52-.25,1.18,1.18,0,0,0,.2-.71Z" transform="translate(-18.44 -23.41)"/><path class="cls-3" d="M84.24,31.43H83V33.8h-.35V31.14h1.63Z" transform="translate(-18.44 -23.41)"/><path class="cls-3" d="M86.6,32.56a1.62,1.62,0,0,1-.13.68,1,1,0,0,1-.37.44,1,1,0,0,1-.57.16.94.94,0,0,1-.55-.16,1,1,0,0,1-.38-.44,1.53,1.53,0,0,1-.14-.66v-.19a1.62,1.62,0,0,1,.13-.68,1,1,0,0,1,.38-.45,1.06,1.06,0,0,1,1.12,0,.94.94,0,0,1,.38.45,1.59,1.59,0,0,1,.13.68Zm-.35-.18a1.16,1.16,0,0,0-.19-.72.66.66,0,0,0-1,0,1.12,1.12,0,0,0-.2.7v.2a1.2,1.2,0,0,0,.19.72.64.64,0,0,0,.53.26.61.61,0,0,0,.53-.25,1.18,1.18,0,0,0,.19-.71Z" transform="translate(-18.44 -23.41)"/><path class="cls-3" d="M90,33a.94.94,0,0,1-.31.65,1,1,0,0,1-.69.23.93.93,0,0,1-.76-.34,1.38,1.38,0,0,1-.29-.91v-.25a1.45,1.45,0,0,1,.14-.65,1,1,0,0,1,.37-.44A1.08,1.08,0,0,1,89,31.1.91.91,0,0,1,90,32h-.35a.73.73,0,0,0-.2-.46.61.61,0,0,0-.42-.14.62.62,0,0,0-.53.25,1.11,1.11,0,0,0-.19.71v.25a1.18,1.18,0,0,0,.18.69.57.57,0,0,0,.51.26.64.64,0,0,0,.44-.13.69.69,0,0,0,.21-.46Z" transform="translate(-18.44 -23.41)"/><path class="cls-3" d="M90.49,33.8V31.14h.87a1,1,0,0,1,.66.18.65.65,0,0,1,.21.53.56.56,0,0,1-.1.33.72.72,0,0,1-.29.22.63.63,0,0,1,.34.23.68.68,0,0,1,.13.4.72.72,0,0,1-.24.57,1,1,0,0,1-.65.2Zm.35-1.53h.54a.52.52,0,0,0,.36-.11.37.37,0,0,0,.14-.31.36.36,0,0,0-.13-.32.59.59,0,0,0-.39-.1h-.52Zm0,.29v.95h.58a.57.57,0,0,0,.39-.12A.43.43,0,0,0,92,33c0-.32-.17-.48-.52-.48Z" transform="translate(-18.44 -23.41)"/><path class="cls-3" d="M94.33,32.57H93.18v.94h1.34v.29H92.83V31.14H94.5v.29H93.18v.85h1.15Z" transform="translate(-18.44 -23.41)"/><path class="cls-3" d="M96.83,31.43H96V33.8h-.34V31.43h-.86v-.29h2.06Z" transform="translate(-18.44 -23.41)"/><path class="cls-3" d="M98.55,33.1H97.44l-.25.7h-.37l1-2.66h.31l1,2.66h-.36Zm-1-.28h.91L98,31.57Z" transform="translate(-18.44 -23.41)"/><line class="cls-4" x1="34.63" y1="16.55" x2="34.63" y2="1.85"/><rect class="cls-5" x="38.28" y="11.89" width="34.04" height="4.66"/><path class="cls-6" d="M59.33,36.29h.35V39h-.35V36.9L58,39h-.35V36.29H58v2.05Z" transform="translate(-18.44 -23.41)"/><path class="cls-6" d="M62.88,36.58H61.59v.8h.66a1,1,0,0,1,.66.21.75.75,0,0,1,.23.57.72.72,0,0,1-.24.57.92.92,0,0,1-.64.23h-1V36.29h1.64Zm-1.29,1.09v1h.64a.58.58,0,0,0,.41-.14.48.48,0,0,0,.15-.37.47.47,0,0,0-.14-.36.57.57,0,0,0-.4-.13Z" transform="translate(-18.44 -23.41)"/><path class="cls-6" d="M65.12,37.72H64v1h1.35V39h-1.7V36.29h1.68v.29H64v.86h1.16Z" transform="translate(-18.44 -23.41)"/><path class="cls-6" d="M67.11,37a.4.4,0,0,0-.16-.34.71.71,0,0,0-.82,0A.4.4,0,0,0,66,37h-.35a.7.7,0,0,1,.11-.38.78.78,0,0,1,.33-.26,1.14,1.14,0,0,1,.46-.09,1,1,0,0,1,.69.2.64.64,0,0,1,.25.55.6.6,0,0,1-.11.34.8.8,0,0,1-.32.24.61.61,0,0,1,.47.62.68.68,0,0,1-.27.57,1.09,1.09,0,0,1-.71.21A1.21,1.21,0,0,1,66,38.9a.77.77,0,0,1-.34-.27.71.71,0,0,1-.12-.41h.35a.46.46,0,0,0,.17.35.64.64,0,0,0,.42.13.74.74,0,0,0,.46-.13.44.44,0,0,0,.17-.35c0-.31-.19-.47-.58-.48h-.33v-.29h.33a.58.58,0,0,0,.4-.12A.39.39,0,0,0,67.11,37Z" transform="translate(-18.44 -23.41)"/><path class="cls-6" d="M70,37.71a1.59,1.59,0,0,1-.13.68,1,1,0,0,1-.37.45,1.05,1.05,0,0,1-.57.15,1,1,0,0,1-.55-.15A1,1,0,0,1,68,38.4a1.57,1.57,0,0,1-.14-.67v-.19a1.83,1.83,0,0,1,.13-.68,1.12,1.12,0,0,1,.38-.45,1.12,1.12,0,0,1,1.12,0,.94.94,0,0,1,.38.45,1.59,1.59,0,0,1,.13.68Zm-.35-.17a1.18,1.18,0,0,0-.19-.73.61.61,0,0,0-.53-.25.6.6,0,0,0-.52.25,1.12,1.12,0,0,0-.2.7v.2a1.23,1.23,0,0,0,.19.72.61.61,0,0,0,.53.26.63.63,0,0,0,.53-.24,1.15,1.15,0,0,0,.19-.71Z" transform="translate(-18.44 -23.41)"/><path class="cls-6" d="M72.57,39h-.35V36.58H70.91V39h-.35V36.29h2Z" transform="translate(-18.44 -23.41)"/><path class="cls-6" d="M74.68,38.26H73.57l-.25.7H73l1-2.67h.31l1,2.67h-.36Zm-1-.29h.91l-.45-1.24Z" transform="translate(-18.44 -23.41)"/><path class="cls-6" d="M77.59,38.11a.94.94,0,0,1-.31.65,1,1,0,0,1-.7.23.92.92,0,0,1-.75-.34,1.33,1.33,0,0,1-.29-.9v-.26a1.48,1.48,0,0,1,.14-.65.92.92,0,0,1,.37-.43,1.05,1.05,0,0,1,.57-.15,1,1,0,0,1,.68.23,1,1,0,0,1,.29.66h-.35a.76.76,0,0,0-.2-.46.57.57,0,0,0-.42-.15.65.65,0,0,0-.53.25,1.13,1.13,0,0,0-.19.71v.26a1.18,1.18,0,0,0,.18.69.58.58,0,0,0,.5.25.65.65,0,0,0,.45-.13.69.69,0,0,0,.21-.46Z" transform="translate(-18.44 -23.41)"/><path class="cls-6" d="M80.12,39h-.35V37.72H78.42V39h-.35V36.29h.35v1.15h1.35V36.29h.35Z" transform="translate(-18.44 -23.41)"/><path class="cls-6" d="M82.79,37.71a1.59,1.59,0,0,1-.13.68,1,1,0,0,1-.37.45,1.05,1.05,0,0,1-.57.15,1,1,0,0,1-.55-.15,1,1,0,0,1-.38-.44,1.57,1.57,0,0,1-.14-.67v-.19a1.83,1.83,0,0,1,.13-.68,1.12,1.12,0,0,1,.38-.45,1.12,1.12,0,0,1,1.12,0,.94.94,0,0,1,.38.45,1.59,1.59,0,0,1,.13.68Zm-.35-.17a1.18,1.18,0,0,0-.19-.73.61.61,0,0,0-.53-.25.6.6,0,0,0-.52.25,1.12,1.12,0,0,0-.2.7v.2a1.16,1.16,0,0,0,.19.72.61.61,0,0,0,.53.26.63.63,0,0,0,.53-.24,1.15,1.15,0,0,0,.19-.71Z" transform="translate(-18.44 -23.41)"/><path class="cls-6" d="M85.28,38.11a1,1,0,0,1-.31.65,1,1,0,0,1-.7.23.93.93,0,0,1-.76-.34,1.33,1.33,0,0,1-.28-.9v-.26a1.48,1.48,0,0,1,.13-.65.94.94,0,0,1,.38-.43,1,1,0,0,1,.56-.15,1,1,0,0,1,.68.23,1,1,0,0,1,.3.66h-.36a.76.76,0,0,0-.19-.46.61.61,0,0,0-.43-.15.66.66,0,0,0-.53.25,1.13,1.13,0,0,0-.19.71v.26a1.18,1.18,0,0,0,.18.69.58.58,0,0,0,.51.25.69.69,0,0,0,.45-.13.73.73,0,0,0,.2-.46Z" transform="translate(-18.44 -23.41)"/><path class="cls-6" d="M87.54,36.58h-.85V39h-.35V36.58h-.86v-.29h2.06Z" transform="translate(-18.44 -23.41)"/><path class="cls-6" d="M89.62,36.29H90V39h-.35V36.9L88.31,39H88V36.29h.36v2.05Z" transform="translate(-18.44 -23.41)"/></svg>